<mxfile host="app.diagrams.net" agent="Mozilla/5.0 (Windows NT 10.0; Win64; x64) AppleWebKit/537.36 (KHTML, like Gecko) Chrome/141.0.0.0 Safari/537.36" version="28.2.4">
  <diagram name="Página-1" id="r4BGrgVhWn9s6_1taykc">
    <mxGraphModel dx="1158" dy="692" grid="1" gridSize="10" guides="1" tooltips="1" connect="1" arrows="1" fold="1" page="1" pageScale="1" pageWidth="827" pageHeight="1169" math="0" shadow="0">
      <root>
        <mxCell id="0" />
        <mxCell id="1" parent="0" />
        <mxCell id="o5gbWbHdvLX-UuKJVNfM-2" value="Atleta" style="shape=umlActor;verticalLabelPosition=bottom;verticalAlign=top;html=1;outlineConnect=0;" vertex="1" parent="1">
          <mxGeometry x="150" y="330" width="30" height="60" as="geometry" />
        </mxCell>
        <mxCell id="o5gbWbHdvLX-UuKJVNfM-7" value="Administrador&lt;div&gt;&lt;br&gt;&lt;/div&gt;" style="shape=umlActor;verticalLabelPosition=bottom;verticalAlign=top;html=1;outlineConnect=0;" vertex="1" parent="1">
          <mxGeometry x="140" y="90" width="30" height="60" as="geometry" />
        </mxCell>
        <mxCell id="o5gbWbHdvLX-UuKJVNfM-9" value="" style="swimlane;startSize=0;" vertex="1" parent="1">
          <mxGeometry x="240" y="20" width="500" height="430" as="geometry" />
        </mxCell>
        <mxCell id="o5gbWbHdvLX-UuKJVNfM-10" value="Alocar local" style="ellipse;whiteSpace=wrap;html=1;" vertex="1" parent="o5gbWbHdvLX-UuKJVNfM-9">
          <mxGeometry x="40" y="130" width="80" height="40" as="geometry" />
        </mxCell>
        <mxCell id="o5gbWbHdvLX-UuKJVNfM-11" value="Registrar resultados" style="ellipse;whiteSpace=wrap;html=1;" vertex="1" parent="o5gbWbHdvLX-UuKJVNfM-9">
          <mxGeometry x="40" y="10" width="80" height="40" as="geometry" />
        </mxCell>
        <mxCell id="o5gbWbHdvLX-UuKJVNfM-1" value="Cadastrar competição" style="ellipse;whiteSpace=wrap;html=1;" vertex="1" parent="o5gbWbHdvLX-UuKJVNfM-9">
          <mxGeometry x="230" y="20" width="80" height="40" as="geometry" />
        </mxCell>
        <mxCell id="o5gbWbHdvLX-UuKJVNfM-12" value="Gerar relatorios" style="ellipse;whiteSpace=wrap;html=1;" vertex="1" parent="o5gbWbHdvLX-UuKJVNfM-9">
          <mxGeometry x="40" y="190" width="80" height="40" as="geometry" />
        </mxCell>
        <mxCell id="o5gbWbHdvLX-UuKJVNfM-13" value="Inscrever na competição" style="ellipse;whiteSpace=wrap;html=1;" vertex="1" parent="o5gbWbHdvLX-UuKJVNfM-9">
          <mxGeometry x="40" y="350" width="80" height="40" as="geometry" />
        </mxCell>
        <mxCell id="o5gbWbHdvLX-UuKJVNfM-14" value="Consultar resultados" style="ellipse;whiteSpace=wrap;html=1;" vertex="1" parent="o5gbWbHdvLX-UuKJVNfM-9">
          <mxGeometry x="40" y="300" width="80" height="40" as="geometry" />
        </mxCell>
        <mxCell id="o5gbWbHdvLX-UuKJVNfM-15" value="Editar competição" style="ellipse;whiteSpace=wrap;html=1;" vertex="1" parent="o5gbWbHdvLX-UuKJVNfM-9">
          <mxGeometry x="230" y="70" width="80" height="40" as="geometry" />
        </mxCell>
        <mxCell id="o5gbWbHdvLX-UuKJVNfM-18" value="Gerenciar&amp;nbsp;&lt;div&gt;competição&lt;/div&gt;" style="ellipse;whiteSpace=wrap;html=1;" vertex="1" parent="o5gbWbHdvLX-UuKJVNfM-9">
          <mxGeometry x="40" y="70" width="80" height="40" as="geometry" />
        </mxCell>
        <mxCell id="o5gbWbHdvLX-UuKJVNfM-19" value="" style="endArrow=none;dashed=1;html=1;rounded=0;entryX=0;entryY=0.5;entryDx=0;entryDy=0;" edge="1" parent="o5gbWbHdvLX-UuKJVNfM-9" target="o5gbWbHdvLX-UuKJVNfM-1">
          <mxGeometry width="50" height="50" relative="1" as="geometry">
            <mxPoint x="120" y="90" as="sourcePoint" />
            <mxPoint x="170" y="40" as="targetPoint" />
          </mxGeometry>
        </mxCell>
        <mxCell id="o5gbWbHdvLX-UuKJVNfM-32" value="&lt;font style=&quot;font-size: 7px;&quot;&gt;&amp;lt;&amp;lt;Include&amp;gt;&amp;gt;&lt;/font&gt;" style="edgeLabel;html=1;align=center;verticalAlign=middle;resizable=0;points=[];rotation=-30;" vertex="1" connectable="0" parent="o5gbWbHdvLX-UuKJVNfM-19">
          <mxGeometry x="-0.3574" y="-2" relative="1" as="geometry">
            <mxPoint x="4" y="-16" as="offset" />
          </mxGeometry>
        </mxCell>
        <mxCell id="o5gbWbHdvLX-UuKJVNfM-20" value="" style="endArrow=none;dashed=1;html=1;rounded=0;entryX=0;entryY=0.5;entryDx=0;entryDy=0;exitX=1;exitY=0.5;exitDx=0;exitDy=0;" edge="1" parent="o5gbWbHdvLX-UuKJVNfM-9" source="o5gbWbHdvLX-UuKJVNfM-18" target="o5gbWbHdvLX-UuKJVNfM-15">
          <mxGeometry width="50" height="50" relative="1" as="geometry">
            <mxPoint x="140" y="120" as="sourcePoint" />
            <mxPoint x="250" y="70" as="targetPoint" />
          </mxGeometry>
        </mxCell>
        <mxCell id="o5gbWbHdvLX-UuKJVNfM-33" value="&lt;font style=&quot;font-size: 7px;&quot;&gt;&amp;lt;&amp;lt;Include&amp;gt;&amp;gt;&lt;/font&gt;" style="edgeLabel;html=1;align=center;verticalAlign=middle;resizable=0;points=[];rotation=0;" vertex="1" connectable="0" parent="o5gbWbHdvLX-UuKJVNfM-9">
          <mxGeometry x="180" y="80" as="geometry">
            <mxPoint as="offset" />
          </mxGeometry>
        </mxCell>
        <mxCell id="o5gbWbHdvLX-UuKJVNfM-34" value="&lt;font style=&quot;font-size: 7px;&quot;&gt;&amp;lt;&amp;lt;Include&amp;gt;&amp;gt;&lt;/font&gt;" style="edgeLabel;html=1;align=center;verticalAlign=middle;resizable=0;points=[];rotation=30;" vertex="1" connectable="0" parent="o5gbWbHdvLX-UuKJVNfM-9">
          <mxGeometry x="180" y="120" as="geometry" />
        </mxCell>
        <mxCell id="o5gbWbHdvLX-UuKJVNfM-21" value="" style="endArrow=none;dashed=1;html=1;rounded=0;entryX=0;entryY=0.5;entryDx=0;entryDy=0;exitX=1;exitY=0.5;exitDx=0;exitDy=0;" edge="1" parent="1" source="o5gbWbHdvLX-UuKJVNfM-16">
          <mxGeometry width="50" height="50" relative="1" as="geometry">
            <mxPoint x="400" y="220" as="sourcePoint" />
            <mxPoint x="510" y="170" as="targetPoint" />
          </mxGeometry>
        </mxCell>
        <mxCell id="o5gbWbHdvLX-UuKJVNfM-16" value="Excluir competição" style="ellipse;whiteSpace=wrap;html=1;" vertex="1" parent="1">
          <mxGeometry x="470" y="160" width="80" height="40" as="geometry" />
        </mxCell>
        <mxCell id="o5gbWbHdvLX-UuKJVNfM-22" value="" style="endArrow=none;dashed=1;html=1;rounded=0;entryX=0;entryY=0.5;entryDx=0;entryDy=0;exitX=1;exitY=0.5;exitDx=0;exitDy=0;" edge="1" parent="1" source="o5gbWbHdvLX-UuKJVNfM-18" target="o5gbWbHdvLX-UuKJVNfM-16">
          <mxGeometry width="50" height="50" relative="1" as="geometry">
            <mxPoint x="360" y="130" as="sourcePoint" />
            <mxPoint x="510" y="170" as="targetPoint" />
          </mxGeometry>
        </mxCell>
        <mxCell id="o5gbWbHdvLX-UuKJVNfM-26" value="" style="endArrow=none;html=1;rounded=0;entryX=0;entryY=0.5;entryDx=0;entryDy=0;" edge="1" parent="1" source="o5gbWbHdvLX-UuKJVNfM-7" target="o5gbWbHdvLX-UuKJVNfM-18">
          <mxGeometry width="50" height="50" relative="1" as="geometry">
            <mxPoint x="230" y="180" as="sourcePoint" />
            <mxPoint x="280" y="130" as="targetPoint" />
          </mxGeometry>
        </mxCell>
        <mxCell id="o5gbWbHdvLX-UuKJVNfM-27" value="" style="endArrow=none;html=1;rounded=0;entryX=0;entryY=0.5;entryDx=0;entryDy=0;" edge="1" parent="1" source="o5gbWbHdvLX-UuKJVNfM-7" target="o5gbWbHdvLX-UuKJVNfM-10">
          <mxGeometry width="50" height="50" relative="1" as="geometry">
            <mxPoint x="180" y="191" as="sourcePoint" />
            <mxPoint x="280" y="200" as="targetPoint" />
          </mxGeometry>
        </mxCell>
        <mxCell id="o5gbWbHdvLX-UuKJVNfM-28" value="" style="endArrow=none;html=1;rounded=0;exitX=0.037;exitY=0.289;exitDx=0;exitDy=0;exitPerimeter=0;" edge="1" parent="1" source="o5gbWbHdvLX-UuKJVNfM-12" target="o5gbWbHdvLX-UuKJVNfM-7">
          <mxGeometry width="50" height="50" relative="1" as="geometry">
            <mxPoint x="290" y="250" as="sourcePoint" />
            <mxPoint x="390" y="259" as="targetPoint" />
          </mxGeometry>
        </mxCell>
        <mxCell id="o5gbWbHdvLX-UuKJVNfM-29" value="" style="endArrow=none;html=1;rounded=0;entryX=0;entryY=0.5;entryDx=0;entryDy=0;" edge="1" parent="1" target="o5gbWbHdvLX-UuKJVNfM-11">
          <mxGeometry width="50" height="50" relative="1" as="geometry">
            <mxPoint x="180" y="110" as="sourcePoint" />
            <mxPoint x="490" y="239" as="targetPoint" />
          </mxGeometry>
        </mxCell>
        <mxCell id="o5gbWbHdvLX-UuKJVNfM-30" value="" style="endArrow=none;html=1;rounded=0;entryX=0;entryY=0.5;entryDx=0;entryDy=0;" edge="1" parent="1" source="o5gbWbHdvLX-UuKJVNfM-2" target="o5gbWbHdvLX-UuKJVNfM-13">
          <mxGeometry width="50" height="50" relative="1" as="geometry">
            <mxPoint x="290" y="290" as="sourcePoint" />
            <mxPoint x="390" y="299" as="targetPoint" />
          </mxGeometry>
        </mxCell>
        <mxCell id="o5gbWbHdvLX-UuKJVNfM-31" value="" style="endArrow=none;html=1;rounded=0;entryX=0;entryY=0.5;entryDx=0;entryDy=0;" edge="1" parent="1" target="o5gbWbHdvLX-UuKJVNfM-14">
          <mxGeometry width="50" height="50" relative="1" as="geometry">
            <mxPoint x="180" y="360" as="sourcePoint" />
            <mxPoint x="280" y="350" as="targetPoint" />
          </mxGeometry>
        </mxCell>
      </root>
    </mxGraphModel>
  </diagram>
</mxfile>
